<?xml version="1.0" standalone="no"?>
<!DOCTYPE svg PUBLIC "-//W3C//DTD SVG 20010904//EN"
 "http://www.w3.org/TR/2001/REC-SVG-20010904/DTD/svg10.dtd">
<svg version="1.0" xmlns="http://www.w3.org/2000/svg"
 width="1024.000000pt" height="1024.000000pt" viewBox="0 0 1024.000000 1024.000000"
 preserveAspectRatio="xMidYMid meet">
<metadata>
Created by potrace 1.11, written by Peter Selinger 2001-2013
</metadata>
<g transform="translate(0.000000,1024.000000) scale(0.100000,-0.100000)"
fill="#000000" stroke="none">
<path d="M6790 10065 c-226 -61 -284 -269 -121 -433 26 -26 65 -58 89 -72 49
-29 49 -25 2 -180 -33 -109 -38 -127 -39 -147 -1 -18 -15 -16 -74 11 -89 40
-298 116 -362 131 -5 1 -17 5 -25 8 -30 13 -224 64 -310 83 -14 2 -33 7 -42
10 -10 3 -30 7 -45 10 -16 3 -44 9 -63 14 -39 10 -105 22 -133 24 -22 1 -65
-73 -92 -163 -4 -13 -14 -40 -23 -60 -9 -20 -16 -38 -17 -41 -5 -17 -27 -68
-35 -82 -6 -10 -10 -25 -10 -34 0 -17 38 -53 57 -54 6 0 13 -4 15 -8 2 -4 74
-59 161 -121 l157 -112 163 5 c89 4 253 9 364 12 l202 5 -25 -78 c-14 -43 -27
-86 -29 -96 -2 -10 -15 -55 -29 -100 -14 -45 -46 -152 -71 -237 -81 -271 -97
-325 -101 -332 -6 -10 26 -26 88 -42 29 -8 105 -30 168 -49 63 -19 118 -32
122 -28 4 3 9 17 13 31 6 24 3 27 -44 39 -28 7 -52 11 -54 9 -2 -1 -10 2 -18
8 -8 6 -37 17 -66 24 -51 12 -76 36 -48 46 9 4 22 1 30 -6 8 -7 15 -10 15 -7
0 3 28 -4 63 -15 34 -11 70 -21 80 -23 10 -2 27 -7 37 -10 13 -4 22 1 30 15
13 25 9 42 -11 46 -29 7 -222 64 -226 68 -2 2 -1 10 3 19 5 13 11 14 32 5 15
-5 36 -11 47 -13 11 -2 49 -12 84 -24 83 -27 98 -27 103 3 6 28 -8 46 -34 46
-9 0 -27 4 -40 9 -13 5 -56 19 -96 31 -67 20 -73 24 -67 43 3 12 8 33 11 46 3
14 8 29 11 34 3 5 9 23 13 41 5 17 20 69 35 116 14 47 28 90 29 95 1 6 9 30
16 55 8 25 14 47 15 50 0 3 4 14 7 25 4 11 16 52 27 91 l21 71 72 1 c128 1
247 8 253 13 3 3 -12 33 -33 65 -36 56 -103 120 -179 172 -28 20 -30 26 -23
50 5 15 27 91 51 169 l42 143 31 -6 c48 -9 159 -6 189 5 15 6 27 8 27 6 0 -12
97 46 125 73 43 43 49 52 62 95 34 111 -37 250 -170 334 -104 66 -296 98 -407
68z m234 -109 c46 -11 103 -44 141 -81 132 -128 44 -291 -153 -284 -79 3 -109
12 -179 56 -155 96 -140 267 27 313 30 8 123 6 164 -4z"/>
<path d="M4859 10047 c-1 -12 -2 -35 -3 -52 -1 -40 -5 -41 -81 -12 -16 7 -32
12 -35 13 -3 0 -23 6 -46 12 -102 29 -227 46 -326 43 -31 -1 -36 -4 -31 -18 4
-10 12 -23 17 -30 31 -35 36 -43 30 -43 -4 0 0 -8 8 -17 31 -37 31 -44 1 -38
-31 6 -173 6 -213 1 -14 -2 -43 -6 -65 -9 -33 -5 -71 -13 -150 -31 -56 -13
-95 -28 -95 -36 0 -6 4 -10 9 -10 5 0 37 -19 70 -42 l60 -41 -87 -87 c-97 -96
-189 -195 -242 -260 -19 -24 -40 -48 -46 -54 -19 -21 -131 -171 -171 -231 -86
-128 -175 -293 -246 -455 -23 -52 -84 -240 -90 -275 -3 -16 -8 -41 -11 -55
-11 -47 -17 -85 -23 -150 -5 -65 -5 -66 27 -90 95 -73 237 -182 250 -193 77
-61 109 -79 215 -116 33 -12 69 -25 80 -30 11 -5 47 -19 80 -31 33 -12 69 -26
80 -30 11 -4 47 -18 80 -30 33 -12 69 -26 80 -31 11 -4 58 -22 105 -38 92 -32
183 -66 215 -80 11 -5 85 -33 165 -61 80 -29 149 -56 154 -60 4 -5 33 0 65 10
173 56 288 93 301 95 8 2 15 4 15 5 0 1 7 3 15 5 8 2 62 18 120 37 58 19 204
65 326 103 l221 70 -37 70 c-74 140 -108 273 -104 417 1 51 5 104 8 118 3 14
11 48 17 75 11 52 98 242 121 266 7 8 25 32 40 54 15 23 46 58 68 80 l40 39
-22 23 c-12 13 -27 23 -34 23 -7 0 -14 4 -16 8 -1 5 -68 55 -148 112 -80 57
-146 107 -148 112 -2 4 -10 8 -18 8 -8 0 -14 3 -14 6 0 7 83 218 106 271 8 17
14 34 14 37 0 3 11 30 25 60 14 30 25 61 25 70 0 19 -55 121 -84 154 -59 69
-141 146 -225 212 -18 14 -42 33 -53 43 -36 29 -44 21 -43 -43 0 -33 -1 -60
-2 -60 -1 0 -8 6 -15 13 -21 21 -168 118 -168 111 0 -4 -7 -1 -15 6 -9 7 -45
28 -80 46 -63 31 -65 32 -66 11z m490 -499 c18 -11 40 -25 48 -33 19 -19 45
-84 38 -95 -3 -5 -1 -11 4 -14 22 -14 -38 -146 -66 -146 -7 0 -13 -4 -13 -9 0
-5 -10 -12 -22 -16 -125 -38 -234 28 -243 147 -4 70 21 124 76 159 51 33 126
36 178 7z"/>
<path d="M5219 9523 c-88 -28 -119 -145 -57 -215 48 -54 121 -64 179 -25 136
91 35 290 -122 240z"/>
<path d="M2983 8032 c-273 -161 -399 -432 -396 -852 0 -88 8 -202 18 -275 2
-16 6 -48 9 -70 11 -81 15 -102 31 -175 16 -73 97 -344 115 -385 4 -11 21 -54
35 -95 15 -41 34 -91 42 -110 8 -19 20 -46 25 -60 6 -14 17 -37 25 -52 8 -16
12 -28 8 -28 -3 0 1 -10 9 -22 8 -13 15 -26 16 -30 1 -12 49 -121 66 -150 8
-16 12 -28 8 -28 -4 0 1 -9 11 -20 10 -11 15 -20 12 -20 -9 0 35 -81 69 -126
116 -155 244 -231 939 -559 50 -23 137 -65 195 -92 58 -28 107 -50 110 -49 3
0 23 -10 45 -21 36 -20 193 -95 205 -98 11 -3 59 -25 140 -63 47 -22 112 -51
145 -65 33 -14 89 -39 125 -55 36 -17 110 -49 164 -72 54 -23 106 -46 115 -50
16 -9 334 -139 406 -167 22 -8 48 -19 57 -24 10 -5 25 -9 33 -9 8 0 15 -4 15
-8 0 -5 6 -9 13 -9 6 -1 68 -21 137 -47 69 -25 132 -46 141 -46 8 0 21 -6 27
-12 10 -10 14 -8 18 10 4 12 10 22 14 22 4 0 10 8 13 18 3 9 20 42 38 72 17
30 65 120 106 200 42 80 80 151 85 158 6 6 7 12 4 12 -4 0 2 13 13 29 12 16
21 32 21 36 0 3 15 38 34 78 18 40 47 102 65 139 17 37 31 70 31 73 0 3 9 24
20 48 40 88 126 321 134 362 1 6 4 15 8 20 8 14 55 219 63 275 15 102 12 175
-10 260 -12 47 -25 96 -28 110 -3 14 -8 35 -11 48 -3 12 -8 30 -10 40 -41 162
-153 529 -186 607 -4 11 -23 58 -40 105 -38 99 -118 265 -149 308 -11 17 -21
33 -21 36 0 15 -132 177 -196 241 -86 86 -169 151 -266 208 -124 72 -122 71
-170 58 -58 -16 -53 -15 -138 -41 -41 -14 -77 -25 -80 -25 -7 -1 -111 -35
-130 -42 -8 -3 -21 -7 -27 -9 -7 -1 -86 -25 -175 -54 -219 -69 -361 -114 -430
-135 -56 -17 -60 -17 -105 1 -27 10 -52 19 -58 20 -9 2 -126 46 -170 64 -11 5
-72 27 -135 50 -128 47 -142 52 -185 70 -16 6 -79 30 -140 51 -60 22 -119 44
-130 48 -11 5 -39 16 -62 25 -24 9 -60 23 -80 31 -21 8 -74 28 -119 45 -44 16
-90 39 -102 50 -12 11 -24 20 -27 20 -4 0 -12 6 -19 13 -7 6 -28 23 -46 37
-18 14 -42 33 -53 43 -11 9 -23 17 -26 17 -3 0 -17 10 -31 23 -49 43 -139 107
-152 106 -7 0 -41 -17 -75 -37z"/>
<path d="M2695 5534 c0 -442 2 -804 5 -804 3 0 44 39 92 88 80 81 111 133 87
147 -4 3 -4 18 0 33 4 15 4 39 0 55 -4 15 -4 27 -1 27 8 0 7 194 -1 214 -3 8
-3 17 0 20 4 3 5 30 4 59 -1 28 -2 61 -2 72 1 11 0 31 0 45 0 14 0 31 0 38 2
29 2 80 1 127 -1 11 -1 27 -1 35 5 167 3 180 -43 285 -26 59 -70 171 -102 263
-18 52 -34 95 -36 97 -2 2 -3 -358 -3 -801z"/>
<path d="M2930 5675 c0 -44 -1 -235 0 -425 0 -190 0 -454 0 -587 l0 -241 93
93 92 93 -1 384 -1 383 -30 60 c-34 65 -137 281 -146 305 -3 8 -6 -21 -7 -65z"/>
<path d="M6793 5588 c-15 -92 -21 -116 -27 -126 -3 -5 -7 -22 -10 -39 -14 -80
-170 -504 -188 -511 -4 -2 -8 -10 -8 -18 0 -18 -67 -161 -180 -384 -120 -238
-144 -284 -150 -290 -3 -3 -18 -30 -34 -60 -16 -30 -39 -69 -51 -87 l-21 -31
-100 33 c-86 28 -298 106 -374 138 -14 5 -29 11 -35 12 -5 2 -30 12 -55 23
-25 11 -97 41 -160 67 -63 25 -138 57 -165 71 -28 13 -53 24 -57 24 -4 0 -36
13 -70 29 -35 15 -80 34 -100 42 -21 7 -38 17 -38 21 0 4 -6 8 -13 8 -8 0 -27
6 -43 14 -16 8 -45 21 -64 29 -39 17 -221 100 -315 142 -33 15 -111 52 -174
81 -62 30 -115 54 -116 54 -2 0 -70 32 -152 71 -81 39 -193 93 -248 119 -429
204 -613 306 -686 382 -16 17 -29 28 -29 24 0 -12 152 -306 162 -312 4 -3 8
-14 8 -24 0 -10 4 -20 9 -22 5 -1 25 -34 45 -73 33 -65 54 -103 128 -230 16
-27 34 -61 41 -75 6 -14 14 -27 18 -30 3 -3 16 -25 30 -50 13 -25 26 -47 29
-50 3 -3 17 -26 30 -52 14 -27 28 -48 32 -48 5 0 8 -5 8 -10 0 -8 82 -146 130
-220 6 -8 16 -26 22 -40 7 -14 18 -31 25 -38 7 -8 18 -23 24 -35 31 -59 107
-166 141 -197 56 -52 57 -52 138 -101 118 -71 209 -107 385 -154 6 -1 13 -3
17 -5 34 -9 130 -29 136 -28 4 1 25 -1 47 -5 22 -4 58 -9 80 -12 22 -2 72 -8
110 -12 79 -9 700 -9 785 1 182 19 289 35 413 62 39 8 80 17 89 19 143 30 398
125 490 182 21 13 40 23 43 23 9 0 148 93 179 120 107 93 207 220 199 253 -9
41 -24 112 -29 137 -2 14 -7 36 -10 50 -4 14 -8 34 -9 45 -2 11 -8 40 -14 65
-7 25 -13 54 -15 65 -4 21 -20 92 -30 135 -4 14 -9 39 -12 55 -3 17 -11 55
-19 85 -7 30 -16 69 -19 85 -4 25 -26 121 -41 185 -2 8 -11 49 -20 90 -9 41
-18 83 -21 93 -2 9 -6 26 -9 38 -2 11 -7 30 -11 41 -3 11 -8 30 -9 41 -2 12
-6 29 -8 37 -14 57 -30 136 -29 143 1 4 -1 7 -6 7 -4 0 -13 -33 -19 -72z"/>
<path d="M3165 4584 c0 -371 3 -674 6 -674 4 0 124 118 177 174 2 2 3 191 2
420 l0 416 -36 70 c-20 39 -41 73 -45 76 -5 3 -9 14 -9 25 0 10 -3 19 -8 19
-4 0 -23 32 -42 71 -18 38 -36 72 -39 74 -4 2 -6 -300 -6 -671z"/>
<path d="M3401 4783 c-1 -21 -2 -42 -2 -48 0 -25 0 -91 0 -105 0 -14 0 -237 0
-285 1 -11 0 -42 0 -70 0 -27 0 -56 0 -62 0 -7 0 -49 0 -93 0 -44 0 -88 0 -97
1 -10 0 -40 0 -68 0 -27 0 -57 0 -65 2 -107 -1 -335 -5 -341 -3 -5 1 -9 8 -9
7 0 51 39 98 85 l85 85 1 398 c1 394 0 397 -22 437 -12 22 -30 56 -40 75 -10
19 -20 37 -23 40 -6 5 -17 23 -58 99 -36 64 -39 67 -42 24z"/>
<path d="M3635 3876 l0 -534 35 32 c19 17 61 59 93 93 l59 61 0 296 0 295 -67
113 c-78 132 -108 178 -115 178 -3 0 -5 -240 -5 -534z"/>
<path d="M7116 4163 c-3 -11 -23 -37 -44 -59 -22 -22 -37 -46 -36 -54 2 -8 8
-33 13 -55 5 -22 12 -53 15 -70 3 -16 8 -41 11 -55 3 -14 8 -45 11 -70 3 -25
8 -54 11 -65 4 -20 5 -29 18 -130 4 -27 8 -61 10 -75 14 -108 24 -186 29 -235
3 -22 7 -62 11 -90 3 -27 8 -63 10 -80 2 -16 4 -30 5 -30 0 0 3 -24 5 -54 2
-30 7 -75 10 -100 7 -55 14 -122 19 -176 12 -114 18 -173 22 -205 2 -19 7 -64
9 -100 3 -36 7 -76 9 -90 3 -14 8 -61 12 -105 3 -44 8 -91 9 -105 3 -25 10
-94 20 -200 36 -400 36 -666 0 -755 -29 -68 -93 -83 -220 -51 -99 26 -340 171
-483 291 -135 114 -196 170 -377 350 -105 105 -234 237 -286 294 -52 57 -104
115 -117 128 -13 12 -21 23 -18 23 2 0 -8 12 -22 28 -15 15 -50 54 -79 87 -28
33 -61 71 -73 85 -12 14 -38 45 -58 69 -21 24 -46 53 -57 66 -11 12 -36 41
-54 65 -19 23 -40 48 -45 54 -6 6 -65 79 -131 161 -66 83 -122 152 -126 155
-3 3 -18 23 -35 45 -16 22 -33 45 -39 52 -5 6 -18 22 -28 35 -23 29 -115 150
-125 163 -46 62 -138 181 -142 185 -3 3 -18 24 -34 48 -33 48 -40 54 -70 58
-18 2 -107 21 -180 39 -68 16 -195 64 -282 106 -56 27 -104 49 -107 49 -10 0
10 -71 22 -80 6 -4 162 -232 201 -294 26 -40 134 -198 145 -210 6 -6 28 -38
50 -71 22 -33 43 -62 46 -65 3 -3 27 -36 54 -75 28 -38 53 -74 58 -80 8 -10
71 -97 105 -145 9 -13 37 -51 62 -85 25 -33 53 -72 62 -86 9 -14 23 -32 30
-40 7 -8 38 -48 68 -89 30 -41 57 -77 60 -80 20 -19 80 -100 80 -108 0 -6 4
-12 8 -14 5 -1 50 -57 102 -123 113 -144 249 -315 267 -333 7 -8 26 -30 41
-50 15 -21 29 -39 32 -42 3 -3 30 -34 60 -70 30 -36 57 -67 60 -70 3 -3 36
-42 74 -87 38 -46 74 -83 79 -83 6 0 8 -3 4 -6 -3 -3 4 -16 16 -28 12 -13 47
-51 77 -85 210 -239 514 -549 691 -706 319 -282 570 -419 764 -420 67 0 86 4
112 23 29 20 75 82 79 107 2 5 9 30 16 55 26 83 28 352 4 565 -11 94 -18 153
-22 190 -3 22 -7 58 -9 80 -4 52 -15 143 -21 177 -4 25 -11 93 -19 178 -2 19
-6 60 -9 90 -3 30 -8 80 -11 110 -3 30 -8 78 -10 105 -3 28 -8 79 -11 115 -10
110 -20 205 -30 261 -2 15 -6 44 -9 65 -3 22 -7 55 -10 74 -3 19 -7 55 -10 80
-3 25 -8 53 -11 63 -3 10 -8 35 -10 55 -5 43 -21 146 -29 182 -3 14 -7 41 -10
60 -3 19 -7 46 -10 60 -3 14 -9 50 -15 80 -5 30 -12 69 -15 85 -3 17 -8 46
-11 65 -3 19 -17 91 -31 160 -13 69 -26 136 -27 150 -2 14 -8 50 -15 80 -6 30
-13 66 -16 80 -12 65 -17 88 -26 130 -16 75 -41 204 -44 225 -2 11 -4 20 -5
20 -1 0 -3 9 -4 20 -2 11 -6 34 -10 50 -3 17 -9 41 -11 55 -10 50 -17 85 -19
99 -4 22 -24 24 -30 4z"/>
<path d="M6945 3980 c-32 -27 -63 -50 -68 -50 -8 0 -3 -283 7 -410 3 -30 8
-98 11 -150 3 -52 8 -111 10 -130 2 -19 6 -66 9 -105 4 -38 8 -81 11 -95 2
-14 6 -56 10 -95 3 -38 8 -83 11 -100 4 -28 11 -86 19 -166 6 -64 17 -163 21
-194 23 -177 23 -376 -2 -470 -16 -65 -78 -115 -141 -115 -55 0 -218 97 -329
196 -12 10 -46 39 -75 64 -71 59 -549 536 -669 669 -52 57 -104 113 -115 125
-24 25 -166 184 -216 240 -19 21 -39 44 -44 50 -6 6 -42 47 -80 91 -39 44 -72
82 -75 85 -5 5 -101 121 -107 129 -1 2 -22 5 -45 6 -171 11 -286 22 -298 30
-5 3 -11 1 -15 -5 -6 -9 17 -51 41 -77 6 -6 40 -50 75 -97 35 -47 67 -86 71
-86 4 0 8 -5 8 -11 0 -6 14 -28 30 -48 17 -20 34 -40 38 -46 28 -39 271 -345
290 -365 13 -14 37 -44 54 -67 17 -24 35 -43 40 -43 4 0 8 -6 8 -14 0 -8 3
-16 8 -18 4 -1 34 -34 66 -73 76 -91 138 -165 151 -179 12 -14 131 -150 165
-190 26 -30 29 -33 180 -197 297 -322 598 -597 813 -741 80 -54 214 -125 249
-132 7 -2 24 -6 38 -10 42 -11 114 -13 133 -4 38 19 50 90 50 293 0 176 -8
312 -27 510 -3 28 -8 79 -11 115 -4 36 -8 79 -10 95 -2 17 -6 59 -9 95 -3 36
-8 81 -10 100 -3 19 -8 64 -11 100 -3 36 -7 79 -9 95 -6 51 -16 142 -21 198
-7 68 -13 121 -19 180 -4 26 -8 66 -11 90 -13 124 -17 155 -22 187 -3 19 -6
56 -8 82 -2 26 -6 55 -9 65 -3 10 -8 49 -12 86 -3 38 -7 76 -9 85 -9 52 -18
109 -20 141 -2 20 -4 36 -5 36 -2 0 -8 34 -14 80 -3 22 -13 80 -23 128 l-18
88 -60 -51z"/>
<path d="M3870 3709 l0 -304 94 94 94 94 -2 86 -2 86 -57 85 c-31 47 -73 103
-92 124 l-35 39 0 -304z"/>
<path d="M6805 3881 c-6 -5 -32 -22 -60 -37 -51 -28 -67 -43 -59 -55 4 -7 7
-29 19 -129 21 -181 28 -264 29 -347 1 -40 3 -73 6 -73 12 0 -1 -385 -16 -476
-4 -21 -7 -44 -7 -51 -1 -19 -53 -33 -100 -27 -38 6 -194 74 -207 92 -3 4 -22
18 -42 32 -21 14 -38 28 -38 33 0 4 -6 7 -14 7 -8 0 -16 3 -18 8 -1 4 -19 20
-38 36 -78 63 -233 209 -361 339 -121 122 -169 175 -271 291 l-26 30 -208 -2
c-114 -1 -209 -3 -210 -5 -1 -1 12 -18 29 -38 18 -20 51 -58 74 -85 22 -27 49
-58 60 -69 10 -11 49 -56 88 -100 38 -44 76 -87 85 -96 8 -9 44 -49 80 -88 36
-40 81 -90 100 -111 19 -20 76 -82 125 -136 50 -54 196 -204 325 -334 212
-213 293 -289 400 -376 19 -16 37 -31 40 -34 3 -3 30 -24 60 -46 128 -95 208
-118 256 -73 51 47 57 75 57 254 0 114 -3 172 -18 300 -2 17 -6 55 -9 85 -4
30 -9 75 -12 100 -3 25 -7 65 -9 90 -5 49 -11 102 -19 165 -3 22 -8 69 -11
105 -2 36 -7 74 -9 86 -2 11 -7 63 -11 115 -3 52 -8 110 -10 129 -5 49 -22
363 -24 458 -1 42 -8 51 -26 33z"/>
<path d="M6610 3777 c-14 -7 -61 -26 -105 -42 -44 -16 -85 -32 -91 -37 -7 -5
-16 -8 -20 -7 -5 1 -12 0 -16 -1 -5 -1 -11 -3 -15 -4 -5 -2 -28 -8 -53 -16
-25 -7 -54 -15 -65 -17 -11 -2 -38 -8 -60 -14 -43 -12 -54 -14 -106 -23 -19
-3 -45 -8 -59 -11 -31 -7 -93 -15 -145 -21 -22 -2 -58 -6 -80 -9 -22 -2 -62
-7 -89 -10 -27 -3 -51 -7 -53 -9 -5 -5 80 -98 249 -273 191 -199 391 -378 525
-471 44 -31 150 -83 181 -88 14 -3 29 -7 32 -9 12 -7 43 21 46 41 23 146 22
585 -2 759 -3 22 -7 56 -9 75 -2 19 -7 62 -11 95 -4 33 -8 70 -8 83 -1 25 -11
27 -46 9z"/>
<path d="M4108 3663 c-3 -7 -2 -207 1 -236 1 -5 23 13 51 40 47 45 62 73 40
73 -5 0 -10 5 -10 10 0 6 -16 34 -36 63 -43 62 -41 60 -46 50z"/>
<path d="M4440 3128 c-21 -83 -72 -224 -105 -293 -75 -156 -161 -223 -245
-193 -14 5 -59 12 -101 15 -171 12 -306 -51 -325 -152 -7 -38 3 -95 14 -78 10
15 61 39 101 48 35 8 153 8 186 1 98 -21 199 -25 261 -11 58 13 139 57 156 84
11 18 15 17 72 -14 34 -18 75 -36 91 -40 17 -4 38 -9 48 -11 9 -2 27 -6 40 -9
49 -12 337 -26 337 -17 0 5 -41 65 -50 72 -3 3 -21 26 -40 52 -34 45 -36 46
-85 44 -116 -5 -209 37 -239 108 -21 48 -18 143 8 216 15 44 15 46 -9 80 -14
19 -33 46 -42 60 -9 14 -27 37 -40 53 l-22 27 -11 -42z"/>
</g>
</svg>
